<svg width="24" height="20" viewBox="0 0 24 20" fill="none" xmlns="http://www.w3.org/2000/svg">
<path d="M7.55016 19.75C16.6045 19.75 21.5583 12.2467 21.5583 5.74189C21.5583 5.53095 21.5536 5.31533 21.5442 5.10439C22.5079 4.40749 23.3395 3.54428 24 2.55533C23.1025 2.95463 22.1496 3.21541 21.1739 3.32877C22.2013 2.71294 22.9705 1.7455 23.3391 0.605797C22.3726 1.17859 21.3156 1.58264 20.2134 1.80064C19.4708 1.01159 18.489 0.489147 17.4197 0.314082C16.3504 0.139016 15.2532 0.321081 14.2977 0.832127C13.3423 1.34317 12.5818 2.15474 12.1338 3.14134C11.6859 4.12795 11.5754 5.23465 11.8195 6.29033C9.86249 6.19212 7.94794 5.68373 6.19998 4.79813C4.45203 3.91252 2.90969 2.66947 1.67297 1.14955C1.0444 2.23327 0.852057 3.51568 1.13503 4.73612C1.418 5.95657 2.15506 7.02348 3.19641 7.72002C2.41463 7.6952 1.64998 7.48471 0.965625 7.10595V7.16689C0.964925 8.30418 1.3581 9.40662 2.07831 10.2868C2.79852 11.167 3.80132 11.7706 4.91625 11.995C4.19206 12.1932 3.43198 12.222 2.69484 12.0794C3.00945 13.0575 3.62157 13.9129 4.44577 14.5264C5.26997 15.1398 6.26512 15.4806 7.29234 15.5013C5.54842 16.8711 3.39417 17.6142 1.17656 17.6106C0.783287 17.61 0.390399 17.5859 0 17.5385C2.25286 18.9838 4.87353 19.7514 7.55016 19.75Z" fill="#00171F"/>
</svg>
